<?xml version="1.0" encoding="UTF-8"?>
<svg width="36px" height="36px" viewBox="0 0 36 36" version="1.1" xmlns="http://www.w3.org/2000/svg" xmlns:xlink="http://www.w3.org/1999/xlink">
    <title>Remake</title>
    <g id="KeenTune-V1.4" stroke="none" stroke-width="1" fill="none" fill-rule="evenodd">
        <g id="Settings-无数据" transform="translate(-582.000000, -441.000000)">
            <g id="Remake" transform="translate(582.000000, 441.000000)">
                <circle id="椭圆形" stroke="#D9D9D9" fill-opacity="0.1" fill="#FFFFFF" cx="18" cy="18" r="17.5"></circle>
                <path d="M17.6666667,11 C15.8666667,11 14.2,11.6666667 12.9333333,12.9333333 C12.8,13.1333333 12.5333333,13.3333333 12.3333333,13.6 L12.3333333,12.3333333 C12.3333333,11.9333333 12.0666667,11.6666667 11.6666667,11.6666667 C11.2666667,11.6666667 11,11.9333333 11,12.3333333 L11,15.6 C11.0666667,15.6666667 11.1333333,15.6666667 11.1333333,15.6666667 C11.1333333,15.7333333 11.2,15.7333333 11.2,15.8 C11.2,15.8 11.2666667,15.8 11.2666667,15.8666667 C11.3333333,15.8666667 11.3333333,15.9333333 11.4,15.9333333 L14.6,15.9333333 C15,15.9333333 15.2666667,15.6666667 15.2666667,15.2666667 C15.2666667,14.8666667 15,14.6 14.6,14.6 L13.2,14.6 C13.4666667,14.3333333 13.7333333,14 13.9333333,13.8 C14.9333333,12.8666667 16.2666667,12.3333333 17.6666667,12.3333333 C20.6,12.3333333 23,14.7333333 23,17.6666667 C23,20.6 20.6,23 17.6666667,23 C16.2666667,23 14.9333333,22.4666667 13.8666667,21.4666667 C13.6,21.2 13.2,21.2 12.9333333,21.4666667 C12.6666667,21.7333333 12.6666667,22.1333333 12.9333333,22.4 C14.2,23.6666667 15.8666667,24.3333333 17.6666667,24.3333333 C21.3333333,24.3333333 24.3333333,21.3333333 24.3333333,17.6666667 C24.3333333,14 21.3333333,11 17.6666667,11 Z" id="路径" fill-opacity="0.450790299" fill="#000000" fill-rule="nonzero"></path>
            </g>
        </g>
    </g>
</svg>